<svg width="1912" height="1076" viewBox="0 0 1912 1076" fill="none" xmlns="http://www.w3.org/2000/svg">
<path d="M1618.22 486.307C1624.33 487.972 1626.18 462.572 1614.7 466.095C1603.2 469.619 1610.99 484.267 1618.22 486.307Z" fill="#7ED957"/>
<path d="M1091.49 108.425C1091.49 108.425 1087.59 113.806 1096.86 113.806C1106.31 113.806 1125.77 107.501 1141.34 107.501C1156.91 107.501 1152.27 102.126 1149.12 102.126C1145.97 102.126 1137.45 93.5948 1125.03 94.3368C1112.61 95.0788 1113.35 100.641 1105.57 100.641C1097.79 100.641 1099.27 98.2286 1082.96 99.1574C1066.65 99.8994 1082.96 106.946 1091.49 108.425Z" fill="#7ED957"/>
<path d="M1633.97 560.842C1639.16 564.366 1640.09 570.483 1639.16 580.125C1638.23 589.766 1629.53 588.842 1644.35 594.96C1659.18 601.078 1676.79 611.648 1672.34 592.366C1667.89 573.083 1671.41 570.483 1655.66 555.466C1639.9 540.631 1638.98 550.272 1637.31 537.85C1635.64 525.614 1631.19 502.808 1625.08 511.52C1619.7 519.309 1615.44 522.09 1621.55 535.255C1627.86 548.606 1628.6 557.319 1633.97 560.842Z" fill="#7ED957"/>
<path d="M1785.58 673.019C1774.09 660.783 1754.81 651.884 1747.03 652.808C1739.06 653.736 1732.2 665.972 1727.76 661.525C1723.31 657.073 1710.15 636.125 1703.29 642.243C1696.25 648.361 1704.21 655.407 1695.32 655.407C1686.61 655.407 1684.01 665.972 1682.16 651.884C1680.49 637.79 1673.45 630.744 1671.59 641.314C1669.93 651.884 1669 658.931 1664.55 650.955C1660.11 642.985 1657.51 648.361 1657.51 640.385C1657.51 632.415 1639.9 623.697 1633.04 632.415C1628.6 637.977 1626.93 638.532 1625.08 650.768C1623.41 663.009 1618.96 682.292 1628.6 677.097C1638.23 671.908 1640.09 676.174 1644.35 670.056C1648.8 663.933 1653.99 660.409 1661.96 663.933C1669.93 667.456 1666.41 667.456 1680.31 665.604C1694.39 663.933 1701.25 663.933 1711.08 670.056C1720.71 676.174 1739.99 672.65 1739.99 678.768C1739.99 684.886 1719.78 689.338 1739.99 695.456C1760.19 701.574 1764.45 715.668 1770.75 708.621C1776.87 701.574 1785.58 691.933 1791.88 698.98C1798 706.026 1821.72 725.309 1817.27 714.739C1812.83 704.169 1813.75 694.527 1827.84 683.221C1841.92 671.908 1838.4 666.533 1832.29 666.533C1826.17 666.533 1826.17 674.503 1812.09 676.174C1797.81 678.4 1797.07 685.26 1785.58 673.019Z" fill="#7ED957"/>
<path d="M965.082 125.113C966.01 125.3 966.752 125.487 967.488 125.673C975.273 128.823 980.833 124.189 981.575 117.885C990.102 105.462 986.954 128.081 996.404 124.189C1005.67 120.292 1019.02 110.838 1029.95 105.462C1040.88 100.081 1016.61 102.307 997.145 99.1574C977.685 96.0025 950.253 101.565 942.468 106.946C935.243 111.948 953.775 121.776 965.082 125.113Z" fill="#7ED957"/>
<path d="M1600.61 591.437C1595.24 598.297 1584.86 613.314 1577.82 618.695C1570.77 623.884 1558.54 617.024 1559.46 629.26C1560.39 641.501 1561.14 646.877 1562.06 655.589C1562.99 664.307 1564.66 669.682 1577.82 669.682C1590.97 669.682 1597.09 674.135 1601.54 672.277C1605.98 670.611 1605.06 662.636 1610.25 652.071C1615.44 641.501 1624.33 644.095 1620.81 636.307C1617.29 628.336 1617.29 630.189 1617.29 622.218C1617.29 614.243 1621.74 619.619 1619.14 606.454C1616.36 593.289 1606.73 583.648 1600.61 591.437Z" fill="#7ED957"/>
<path d="M1630.64 713.255C1643.05 714.739 1652.51 713.255 1661.03 708.621C1669.56 703.987 1665.67 698.424 1664.92 696.198C1664.18 693.785 1657.88 698.606 1649.35 700.09C1640.83 701.574 1638.42 701.574 1627.48 702.503C1616.55 703.245 1623.59 698.606 1611.92 697.864C1600.24 697.122 1588.56 694.714 1575.22 690.081C1561.88 685.442 1555.01 681.55 1545.56 678.395C1536.11 675.245 1544.82 669.869 1544.08 656.518C1543.34 643.166 1534.63 648.729 1527.77 644.095C1520.73 639.461 1523.14 629.26 1526.29 632.415C1529.44 635.564 1530.18 639.461 1530.18 622.96C1530.18 606.641 1515.35 595.702 1506.09 581.609C1496.63 567.52 1498.3 559.732 1499.05 552.685C1499.79 545.638 1516.28 558.99 1524.81 568.999C1533.33 579.201 1533.33 579.201 1538.15 576.788C1542.78 574.38 1556.87 566.592 1560.02 554.169C1563.17 541.747 1535 516.715 1531.11 505.034C1527.21 493.353 1536.48 500.395 1541.3 492.611C1545.93 484.823 1551.5 495.761 1548.34 501.137C1545.2 506.518 1549.09 509.668 1552.23 515.231C1555.39 520.606 1555.39 515.231 1558.54 508.184C1561.69 501.137 1559.28 498.729 1564.84 494.096C1570.4 489.457 1591.34 483.152 1596.9 477.776C1602.46 472.4 1606.36 466.095 1613.21 446.626C1620.26 427.157 1612.47 427.899 1609.32 420.852C1606.17 413.811 1596.9 402.125 1591.34 395.083C1585.97 388.037 1590.6 389.702 1594.5 387.295C1598.39 384.882 1595.24 379.506 1585.97 376.356C1576.52 373.201 1578.18 379.506 1569.66 377.835C1561.13 376.356 1565.77 370.051 1575.03 359.108C1584.48 348.169 1579.67 361.521 1585.97 366.154C1592.27 370.793 1593.75 362.263 1598.39 364.67C1603.02 367.083 1612.47 371.717 1619.52 380.99C1626.56 390.263 1626.56 401.201 1633.6 400.459C1640.65 399.717 1640.65 396.562 1643.79 389.521C1646.95 382.474 1635.27 376.169 1629.71 370.793C1624.15 365.412 1618.77 365.412 1623.41 360.592C1628.04 355.958 1624.15 348.911 1626.56 343.349C1628.97 337.973 1637.49 340.941 1646.02 337.044C1654.55 333.152 1655.29 319.801 1655.29 305.894C1655.29 291.806 1648.24 285.688 1644.35 280.862C1640.46 276.228 1648.99 278.454 1656.03 284.017C1663.07 289.393 1674.01 319.059 1676.23 330.926C1678.64 342.607 1676.97 342.607 1686.42 352.808C1695.87 363.005 1692.72 361.334 1689.57 373.014C1686.42 384.7 1678.64 387.85 1666.96 391C1655.29 394.155 1659.18 396.381 1652.13 408.248C1645.09 419.929 1656.03 420.671 1662.33 423.82C1668.63 426.975 1671.59 415.29 1679.57 409.727C1687.35 404.351 1695.87 400.272 1709.22 400.272C1722.56 400.272 1705.33 382.287 1704.59 373.014C1703.84 363.747 1703.1 357.442 1699.95 350.395C1696.8 343.349 1703.1 343.349 1712.37 338.715C1721.64 334.081 1720.89 324.621 1715.52 324.621C1710.15 324.621 1705.33 328.518 1692.91 327.776C1680.49 327.034 1683.64 316.838 1680.49 312.941C1677.34 309.049 1673.45 300.518 1672.71 293.472C1671.97 286.425 1661.03 277.157 1653.25 270.11C1645.46 263.064 1640.83 258.43 1640.83 261.58C1640.83 264.735 1636.2 260.838 1625.26 260.096C1614.32 259.359 1611.92 261.58 1602.65 260.838C1593.2 260.096 1603.39 244.523 1607.28 233.585C1611.18 222.646 1622.11 228.946 1630.64 228.946C1639.16 228.946 1643.05 229.688 1655.66 232.843C1668.07 235.993 1662.7 225.054 1665.11 216.523C1667.52 207.998 1672.89 212.631 1679.93 215.781C1686.98 218.936 1689.2 219.678 1689.2 212.631C1689.2 205.585 1695.5 204.101 1700.88 210.219C1706.25 216.523 1691.43 229.688 1691.43 229.688C1691.43 229.688 1686.79 243.781 1695.32 248.415C1703.84 253.054 1721.08 273.447 1731.28 280.494C1741.47 287.54 1734.43 268.813 1734.43 255.462C1734.43 242.11 1725.16 243.781 1718.11 231.359C1711.08 218.936 1715.71 224.312 1729.05 224.312C1742.4 224.312 1743.14 219.678 1746.29 215.781C1749.44 211.889 1751.66 211.147 1763.52 211.147C1775.2 211.147 1768.16 206.514 1762.78 200.209C1757.41 193.904 1746.47 195.575 1750.36 191.678C1754.26 187.786 1775.38 194.091 1785.39 197.983C1795.59 201.88 1793.18 198.725 1791.7 189.452C1790.21 180.184 1781.5 187.044 1756.67 177.771C1731.65 168.504 1704.4 162.941 1695.87 162.941C1687.35 162.941 1693.47 157.56 1699.77 157.56C1706.07 157.56 1704.4 152.184 1698.28 149.035C1691.98 145.88 1686.61 148.292 1684.2 155.339C1681.79 162.386 1691.24 163.123 1673.26 163.123C1655.29 163.123 1642.12 163.123 1621 159.231C1599.87 155.339 1592.08 155.339 1574.11 154.597C1556.13 153.855 1557.79 146.066 1539.08 146.066C1520.36 146.066 1526.66 139.02 1518.87 130.494C1511.09 121.963 1507.2 124.189 1483.85 124.189C1460.49 124.189 1472.91 133.457 1477.55 135.128C1482.18 136.612 1494.78 140.504 1503.31 148.479C1511.83 156.263 1487.74 153.113 1477.55 153.855C1467.35 154.597 1468.28 148.479 1456.42 141.433C1444.74 134.386 1415.83 138.278 1399.52 137.536C1383.21 136.794 1382.28 137.536 1376.16 125.855C1369.86 114.175 1356.7 120.479 1339.47 120.479C1322.23 120.479 1312.96 111.948 1304.44 106.386C1295.91 101.01 1282.57 100.081 1263.85 97.1181C1245.13 93.9632 1255.32 108.799 1262.36 109.541C1262.36 109.541 1270.15 112.69 1277.93 113.432C1285.72 114.175 1302.21 114.917 1310.74 125.113C1319.27 135.315 1284.24 131.418 1268.67 139.949C1253.1 148.479 1240.5 144.582 1229.75 149.221C1218.81 153.855 1235.12 161.644 1239.2 171.84C1243.09 182.037 1239.2 182.037 1232.16 184.263C1225.11 186.671 1234.56 173.324 1231.42 169.427C1228.26 165.536 1216.59 145.324 1207.32 139.02C1197.87 132.715 1199.54 144.401 1201.02 153.113C1202.5 161.644 1204.91 161.644 1207.32 167.949C1209.73 174.248 1197.13 167.949 1191.01 163.31C1184.71 158.676 1164.51 169.614 1155.05 164.794C1145.79 160.16 1158.21 161.644 1158.21 157.005C1158.21 152.371 1147.27 156.263 1144.12 149.221C1140.97 142.175 1163.58 133.644 1177.67 131.236C1191.75 128.823 1190.08 128.823 1190.08 121.963C1190.08 114.917 1165.06 117.329 1144.12 127.339C1122.99 137.536 1128.55 144.582 1125.4 151.442C1122.25 158.489 1132.44 159.231 1137.08 163.123C1141.71 167.02 1131.7 168.504 1122.25 171.654C1112.98 174.808 1110.57 171.654 1099.64 175.551C1088.71 179.442 1095.01 184.076 1085.55 187.973C1076.28 191.865 1077.02 191.865 1069.24 195.015C1061.46 198.17 1070.72 183.334 1081.66 181.668C1092.6 180.184 1089.45 173.88 1086.29 171.467C1083.15 169.059 1062.94 162.941 1041.07 156.636C1019.2 150.332 984.174 159.044 972.494 164.425C960.818 169.801 961.56 173.88 960.077 181.668C958.593 189.452 931.908 201.138 918.744 208.179C905.404 215.226 917.266 224.499 921.156 230.803C925.046 237.108 933.573 233.953 944.506 230.803C955.445 227.649 953.775 241 955.445 245.634C956.928 250.273 963.23 251.015 973.422 246.376C983.614 241.742 981.207 230.803 981.207 224.499C981.207 218.194 978.795 215.039 985.839 206.514C992.882 197.983 999.184 192.42 1005.3 188.528C1011.6 184.631 1010.68 191.678 1001.41 199.467C992.14 207.256 998.256 209.663 1002.89 218.936C1007.52 228.391 1016.97 218.936 1028.65 217.452C1040.33 215.968 1018.46 227.649 1009.94 227.649C1001.41 227.649 1009.94 236.921 1004.56 236.921C999.184 236.921 998.256 240.813 997.514 250.273C996.777 259.727 993.624 257.314 987.322 259.727C981.02 262.135 971.752 262.877 961.56 260.469C951.368 258.056 952.292 248.789 945.248 242.484C938.21 236.179 936.727 245.634 936.727 249.531C936.727 253.423 929.683 261.953 926.53 261.953C923.381 261.953 914.113 271.408 908.553 279.196C903.179 286.985 899.284 282.346 897.619 279.196C896.136 276.042 901.509 271.408 898.361 263.619C895.208 255.835 882.791 249.531 886.681 231.545C890.576 213.56 882.049 223.015 869.446 224.499C857.029 225.983 853.139 231.545 852.21 236.179C851.469 240.813 844.425 250.273 836.64 258.798C828.855 267.329 834.233 274.376 838.123 283.83C842.019 293.29 852.21 280.681 855.359 272.892C858.512 265.103 862.402 261.211 867.039 265.103C871.671 269 859.995 276.042 858.512 285.314C857.029 294.769 861.66 293.845 872.599 290.69C883.532 287.54 877.972 285.314 886.681 289.206C895.208 293.103 878.901 296.253 868.704 296.995C858.512 297.737 862.402 304.784 871.116 311.088C879.642 317.393 875.747 326.661 870.374 327.403C865.001 328.145 854.804 329.816 839.239 332.779C823.668 335.933 837.755 348.356 834.602 355.403C831.453 362.449 830.712 378.022 837.755 378.764C844.799 379.506 844.799 391.186 840.904 395.083C837.014 398.975 836.272 402.867 826.817 409.914C817.367 416.96 824.41 423.265 821.443 432.533C818.295 441.806 810.51 436.43 801.241 446.626C791.973 456.823 787.896 464.611 781.039 476.292C773.996 487.972 773.254 488.714 781.781 502.808C790.308 516.901 781.781 520.793 774.738 533.216C767.694 545.638 777.149 546.567 780.111 557.319C783.264 568.263 789.566 565.85 791.791 576.788C794.198 587.727 797.165 590.882 808.098 598.67C819.037 606.454 829.97 617.398 835.343 614.985C840.717 612.577 849.43 606.454 867.407 607.196C885.384 607.938 879.082 599.412 897.806 596.257C916.525 593.108 906.328 598.67 908.739 604.046C911.146 609.609 921.156 614.985 935.243 615.727C949.33 616.469 937.65 633.712 936.727 644.65C935.985 655.589 936.727 655.589 943.77 664.862C950.808 674.135 960.077 695.27 962.489 706.208C964.895 717.152 960.077 729.574 953.962 739.771C947.66 749.967 950.072 773.328 963.23 790.572C976.57 807.82 968.604 806.891 968.604 824.876C968.604 842.862 978.054 839.712 984.916 849.908C991.954 860.105 988.805 878.832 995.107 888.847C1001.41 899.043 1012.34 889.589 1024.76 884.95C1037.18 880.316 1042.74 881.8 1057.56 870.862C1072.39 859.918 1084.07 838.041 1084.07 831.923C1084.07 825.618 1088.71 823.392 1096.49 820.242C1104.27 817.088 1102.79 796.876 1101.86 791.314C1101.12 785.938 1103.35 781.117 1106.5 777.967C1109.65 774.812 1129.11 756.085 1136.15 748.302C1143.19 740.513 1136.89 729.574 1135.41 717.152C1133.93 704.724 1129.11 699.903 1129.11 685.073C1129.11 670.238 1124.47 671.722 1150.23 647.619C1176 623.515 1200.09 585.132 1202.5 576.601C1204.91 568.076 1203.98 561.029 1202.5 554.724C1201.02 548.42 1167.47 561.029 1159.69 561.029C1151.9 561.029 1137.82 543.786 1136.33 537.668C1134.85 531.363 1122.99 525.245 1112.98 515.786C1102.79 506.518 1110.57 493.167 1102.79 482.97C1095.01 472.769 1091.11 457.938 1089.45 449.407C1087.96 440.877 1101.12 455.712 1111.31 467.393C1121.51 479.073 1134.67 500.955 1138.56 508.739C1142.45 516.528 1145.6 528.208 1146.34 537.668C1147.09 546.936 1153.39 548.606 1162.65 547.864C1171.92 547.122 1204.72 529.879 1216.4 524.503C1228.08 519.122 1242.16 502.621 1247.54 487.049C1252.91 471.471 1235.86 473.697 1228.08 465.909C1220.3 458.125 1220.3 465.909 1210.84 468.322C1201.58 470.729 1193.6 458.125 1178.78 444.218C1163.95 430.125 1173.4 434.946 1176.37 431.796C1179.34 428.641 1194.35 438.837 1202.87 449.039C1211.4 459.236 1213.07 455.344 1223.08 455.344C1233.27 455.344 1235.49 459.978 1248.84 463.869C1262.18 467.766 1269.04 462.385 1280.53 463.501C1291.83 464.611 1290.17 470.174 1298.14 482.597C1305.92 495.019 1302.77 491.127 1320.01 492.793C1337.24 494.277 1324.64 492.793 1324.64 503.737C1324.64 514.675 1326.12 518.567 1336.32 531.918C1346.51 545.27 1350.4 570.115 1353.56 582.724C1356.7 595.147 1363.01 582.724 1373.02 582.724C1383.21 582.724 1373.76 591.25 1381.54 603.859C1389.32 616.282 1394.88 599.968 1394.88 595.329C1394.88 590.695 1390.25 579.014 1385.62 575.122C1380.98 571.225 1374.68 571.968 1380.06 565.85C1385.62 559.545 1380.8 553.427 1380.8 544.709C1380.8 536.184 1381.54 529.879 1385.43 525.987C1389.32 522.09 1403.41 507.997 1411.94 497.801C1420.46 487.604 1427.5 486.12 1439.18 486.862C1450.86 487.604 1441.59 489.275 1448.63 498.543C1455.67 507.997 1457.16 521.162 1464.94 530.621C1472.73 540.076 1473.47 529.137 1479.77 525.987C1486.07 522.832 1482.18 535.255 1486.81 544.709C1491.45 554.169 1488.29 566.592 1488.29 575.122C1488.29 583.648 1498.49 592.366 1504.61 600.149C1510.91 607.938 1508.5 611.835 1504.61 614.985C1500.71 618.134 1492.93 607.196 1486.63 600.891C1480.33 594.587 1471.06 598.484 1477.36 605.53C1483.66 612.577 1487.55 625 1494.6 638.346C1501.64 651.697 1516.47 667.275 1526.66 681.176C1536.86 695.27 1569.47 701.387 1582.08 701.387C1593.2 700.832 1618.22 711.771 1630.64 713.255ZM1089.26 410.469C1084.62 419.742 1082.22 426.046 1075.17 423.82C1068.13 421.413 1044.78 422.336 1033.1 418.444C1021.42 414.547 1004.19 407.506 1001.04 416.032C997.887 424.562 1008.82 431.609 989.36 424.562C969.9 417.516 948.77 408.985 946.55 402.685C944.138 396.381 954.33 379.319 940.248 379.319C926.161 379.319 906.701 378.577 900.399 383.216C894.098 387.85 870.001 396.562 862.221 394.155C855.177 392.115 844.239 389.521 856.842 383.958C869.259 378.577 884.087 381.545 885.757 373.756C887.241 365.973 874.819 364.489 887.241 357.442C899.658 350.395 895.021 344.091 903.548 340.199C912.074 336.302 923.75 337.044 930.051 334.823C936.353 332.41 927.645 330.184 940.248 337.231C952.665 344.277 960.45 357.442 966.752 358.371C973.054 359.108 976.944 363.747 973.054 366.897C969.159 370.051 962.857 372.272 960.632 372.272C958.225 372.272 956.742 378.577 959.148 379.319C961.56 380.061 966.933 390.263 970.829 387.108C974.719 383.958 970.829 379.319 977.872 376.911C984.916 374.498 991.954 371.536 988.805 366.715C985.652 362.076 982.504 356.513 988.805 359.668C995.107 362.818 1000.48 361.152 993.437 354.287C986.394 347.246 983.987 347.246 975.46 340.941C966.933 334.636 957.483 331.481 957.483 326.847C957.483 322.214 952.11 313.496 960.632 316.651C969.159 319.801 998.816 336.12 998.816 342.425C998.816 348.724 1006.6 359.668 999.552 365.044C992.514 370.42 1006.6 372.091 1009.75 375.24C1012.9 378.395 1011.23 386.921 1019.94 385.437C1028.47 383.958 1034.77 384.7 1030.14 375.983C1025.5 367.452 1017.72 363.56 1025.5 360.41C1033.29 357.255 1034.96 353.363 1037.18 366.71C1039.59 380.061 1036.44 384.7 1055.16 385.437C1073.88 386.179 1086.29 380.803 1088.71 386.179C1090.74 391.742 1093.89 401.201 1089.26 410.469ZM1119.65 352.066C1107.24 351.324 1086.11 347.427 1075.91 347.427C1065.72 347.427 1061.83 348.911 1061.83 348.911C1053.3 347.427 1032.92 352.808 1043.11 339.457C1053.3 326.105 1047 309.049 1059.42 313.683C1071.84 318.317 1072.76 336.302 1080.55 325.363C1088.33 314.425 1096.86 302.002 1099.27 310.533C1101.68 319.059 1088.33 326.105 1104.64 333.152C1121.14 340.386 1132.07 352.808 1119.65 352.066ZM1194.53 380.803C1182.85 380.803 1168.77 378.395 1168.77 372.272V357.442C1162.47 342.607 1154.68 339.457 1154.68 329.26C1154.68 319.059 1160.99 310.533 1173.4 310.533C1185.82 310.533 1192.12 309.049 1182.67 319.801C1173.4 330.739 1164.69 331.481 1177.29 348.724C1189.9 365.973 1206.21 380.803 1194.53 380.803Z" fill="#7ED957"/>
<path d="M1791.7 786.125C1783.72 765.913 1783.72 750.154 1779.46 741.437C1775.02 732.724 1778.54 722.154 1765.38 722.154C1760 722.154 1760.19 725.677 1755.74 736.99C1751.29 748.302 1756.67 769.437 1745.18 766.842C1733.87 764.248 1728.5 758.867 1725.9 747.56C1723.3 736.247 1729.42 725.677 1720.71 725.677C1712 725.677 1687.35 719.56 1681.23 729.201C1675.12 738.842 1682.9 742.365 1669.93 742.365C1656.77 742.365 1651.58 742.365 1644.54 751.083C1637.49 759.795 1627.86 784.454 1590.23 786.125C1552.61 787.795 1571.88 808.002 1571.88 829.884C1571.88 851.761 1551.68 864.925 1560.57 872.901C1569.29 880.871 1557.98 891.255 1576.33 885.137C1594.68 879.019 1611.36 877.166 1640.27 872.901C1669.19 868.449 1682.35 866.783 1683.27 880.871C1684.2 894.965 1679.75 885.324 1691.24 887.918C1702.73 890.513 1690.31 909.053 1703.47 910.724C1716.63 912.395 1708.66 922.036 1720.15 922.036C1731.46 922.036 1735.91 934.272 1726.27 934.272C1716.63 934.272 1702.55 954.483 1716.63 947.436C1730.72 940.39 1744.62 938.724 1744.62 928.154C1744.62 917.584 1742.95 916.842 1759.45 903.677C1776.13 890.513 1814.68 858.994 1812.08 833.589C1809.3 808.188 1799.66 806.336 1791.7 786.125Z" fill="#7ED957"/>
<path d="M1906.61 891.441C1899.56 887.918 1899.56 894.036 1895.3 907.2C1890.85 920.365 1868.98 925.559 1865.46 928.341C1861.94 930.935 1854.89 938.906 1854.89 938.906C1838.21 949.476 1805.78 960.046 1813.75 968.758C1821.72 977.476 1826.91 972.281 1846.19 962.64C1865.46 952.999 1870.65 940.763 1881.21 933.717C1891.78 926.67 1897.89 927.599 1905.68 918.881C1913.65 909.795 1913.65 894.965 1906.61 891.441Z" fill="#7ED957"/>
<path d="M656.306 672.837C642.219 668.94 641.477 673.574 639.994 665.791C638.516 658.002 629.061 658.002 620.534 658.002C612.012 658.002 608.859 657.26 601.815 650.955C594.772 644.65 579.948 643.908 575.311 642.424C570.68 640.945 572.905 627.594 563.636 615.171C554.186 602.749 534.726 600.336 522.304 593.289C509.887 586.248 513.782 558.99 495.8 561.216C477.824 563.623 476.34 570.67 459.847 561.958C443.535 553.427 432.601 547.864 423.893 554.169C415.366 560.474 404.427 572.154 398.867 575.304C393.494 578.459 384.044 572.896 378.665 573.82C373.292 574.562 366.99 568.262 363.1 562.881C359.205 557.506 370.144 530.066 359.947 530.066C349.755 530.066 336.597 525.427 336.597 521.535C336.597 517.643 357.727 494.277 351.425 490.385C345.124 486.494 332.702 488.901 321.768 503.737C310.835 518.567 300.638 517.825 295.264 512.262C289.891 506.886 277.288 474.808 287.479 456.823C297.676 438.837 313.983 430.312 326.4 431.054C338.822 431.796 337.338 427.899 349.755 427.157C362.172 426.415 377.929 430.312 380.891 434.946C384.044 439.579 377.742 447.368 385.527 456.823C393.307 466.095 397.944 462.204 398.867 466.095C399.609 469.987 392.571 473.884 389.604 473.884C386.451 473.884 360.689 480.931 370.886 485.565C381.077 490.199 399.054 486.307 402.949 492.611C406.839 498.916 390.527 512.081 413.883 512.823C437.233 513.56 452.803 516.715 466.148 517.457C479.494 518.199 488.757 518.941 490.24 522.09C491.724 525.245 501.179 510.41 479.307 510.41C457.435 510.41 440.386 497.987 428.525 495.574C416.849 493.167 409.064 485.378 408.323 476.11C407.581 466.651 409.064 459.791 404.427 452.002C399.796 444.218 388.121 425.491 399.054 417.702C409.993 409.914 431.86 395.083 437.233 384.882C442.611 374.685 442.611 372.459 455.215 364.67C467.632 356.887 482.46 346.685 489.499 339.644C496.542 332.597 508.222 321.658 510.629 327.221C513.041 332.597 523.974 334.263 537.133 329.629C550.478 324.995 566.79 313.314 552.703 313.314C538.616 313.314 530.089 309.417 533.984 304.042C537.874 298.666 524.716 296.253 520.639 296.995C516.744 297.737 516.744 289.206 530.089 286.798C543.434 284.385 532.501 296.253 543.434 295.329C554.368 294.587 561.411 286.056 569.196 284.386C576.982 282.907 580.13 289.767 569.938 296.808C559.746 303.855 556.593 301.447 569.938 304.597C583.283 307.752 587.173 314.793 594.958 307.752C602.744 300.705 593.475 298.292 592.552 289.025C591.81 279.752 594.03 262.508 585.508 256.204C576.982 249.899 576.982 242.11 576.982 235.992C576.982 229.688 578.465 216.523 569.938 222.646C561.411 228.946 554.368 232.843 551.22 229.688C548.066 226.538 552.703 220.233 545.846 215.6C538.803 210.961 538.061 203.919 529.534 204.656C521.007 205.398 512.299 198.356 507.662 208.553C503.031 218.749 498.212 227.28 496.729 230.43C495.245 233.585 502.102 244.523 495.987 249.899C489.685 255.275 472.637 263.251 470.225 268.626C467.819 274.002 458.55 288.096 456.138 278.823C453.732 269.555 463.923 255.462 449.836 251.57C435.755 247.673 424.816 250.828 422.591 242.297C420.184 233.766 414.069 225.983 427.97 218.936C442.057 211.889 456.138 199.467 469.297 197.796C482.642 196.317 473.192 207.256 484.125 206.327C495.059 205.585 482.642 200.022 495.8 197.796C509.146 195.388 506.739 195.388 502.844 190.754C498.954 186.115 501.36 185.373 511.371 180.553C521.562 175.919 513.782 172.769 523.787 168.872C533.984 164.98 536.204 161.083 541.764 161.083C547.143 161.083 546.401 163.496 543.248 170.543C540.099 177.59 537.874 182.224 547.143 177.59C556.593 172.951 561.23 169.801 554.186 176.848C547.143 183.889 542.506 183.889 532.314 185.373C522.123 186.857 525.271 188.528 529.903 193.904C534.539 199.28 546.214 200.209 550.104 203.177C554 206.327 558.631 217.265 568.086 211.703C577.35 206.327 570.493 205.398 582.91 200.022C595.332 194.646 613.309 191.496 611.825 184.45C610.342 177.403 597.738 173.506 596.255 164.98C594.772 156.45 613.495 151.629 589.212 147.737C565.12 143.84 579.02 140.691 567.345 140.691C555.67 140.691 533.798 140.691 526.013 144.582C518.227 148.479 513.596 142.175 509.701 148.479C505.811 154.784 510.442 163.31 506.552 163.31C502.662 163.31 495.619 169.614 492.465 163.31C489.317 157.005 482.274 150.887 491.724 148.479C500.992 146.066 502.662 147.737 504.141 140.691C505.624 133.644 490.8 134.386 499.509 132.902C508.036 131.418 511.926 133.644 523.606 133.644C535.281 133.644 561.785 138.278 565.675 131.236C569.57 124.189 559.373 124.189 547.698 123.447C536.023 122.705 515.634 118.808 507.107 122.705C498.58 126.597 487.647 132.902 483.757 139.02C479.862 145.324 479.862 137.536 472.077 139.02C464.297 140.504 450.952 149.221 457.995 153.855C465.038 158.489 465.038 164.052 457.253 164.052C449.468 164.052 447.056 171.84 441.683 171.84C436.31 171.84 421.481 171.098 428.338 167.207C435.381 163.31 443.166 163.31 442.425 153.855C441.683 144.401 450.21 141.433 450.21 138.278C450.21 135.128 431.491 145.324 416.663 140.691C401.834 136.057 395.532 129.01 380.709 129.752C365.88 130.494 346.42 149.958 355.684 151.629C365.139 153.113 371.995 150.145 373.666 154.784C375.149 159.418 372.182 163.31 377.556 165.722C382.929 168.13 393.126 174.248 379.967 171.098C366.809 167.949 372.924 162.568 352.722 161.644C332.52 160.902 319.916 154.597 298.973 160.16C277.843 165.536 280.996 170.356 266.909 165.536C252.822 160.902 223.17 149.958 199.815 154.597C176.465 159.231 147.549 167.02 140.506 171.84C133.462 176.474 147.549 181.108 135.132 182.037C122.716 182.779 93.0584 182.037 99.1786 189.826C105.48 197.614 113.26 198.356 103.81 200.022C94.5417 201.506 81.9382 202.435 77.3066 209.295C72.6749 216.342 55.4345 220.233 66.3731 223.383C77.3066 226.538 95.2834 233.585 87.4983 234.327C79.7131 235.069 39.8694 250.641 22.8158 254.533C5.58061 258.43 -8.31957 277.157 6.50902 271.595C25.4091 264.735 76.0099 248.975 85.2784 245.078C94.5417 241.187 98.6184 244.336 97.6952 249.712C96.9535 255.093 108.629 247.305 117.897 240.258C127.16 233.211 127.16 219.123 135.132 223.944C142.917 228.577 147.549 223.944 153.851 222.459C160.153 220.975 166.268 217.084 171.828 220.047C177.206 223.201 191.288 226.351 195.183 229.506C199.073 232.656 200.557 239.703 196.667 240.445C192.771 241.187 192.03 245.079 192.771 251.383C193.513 257.688 196.667 263.064 188.881 264.735C181.096 266.219 182.58 275.673 187.398 274.931C192.03 274.189 195.183 271.781 195.925 267.142C196.667 262.508 206.858 253.796 205.375 260.096C203.892 266.4 200.002 272.523 200.002 277.344C200.002 281.978 194.628 281.236 193.7 285.87C192.958 290.509 194.441 290.509 198.331 294.4C202.227 298.292 199.815 300.705 199.073 309.236C198.331 317.761 174.981 341.309 171.828 349.098C168.679 356.887 170.344 367.825 170.344 376.356C170.344 384.882 167.196 395.82 175.723 398.975C184.245 402.125 184.986 403.609 184.986 411.398C184.986 419.186 184.986 428.641 189.623 434.017C194.255 439.398 192.03 438.656 192.03 447.368C192.03 456.081 197.408 451.26 198.331 458.307C199.073 465.353 194.441 468.508 202.227 473.884C210.012 479.26 218.533 483.152 214.643 474.626C210.748 466.095 208.342 459.049 204.452 446.439C200.557 434.017 198.15 411.398 202.968 418.258C207.6 425.304 213.902 446.439 220.945 461.088C227.989 475.923 236.51 474.439 236.51 485.191C236.51 496.135 227.989 506.331 245.037 513.378C262.277 520.425 274.694 535.255 284.886 533.589C295.078 532.105 301.198 525.801 305.088 532.847C308.983 539.889 317.505 549.162 326.96 549.162C336.223 549.162 339.377 555.466 341.047 564.739C342.525 574.007 348.827 575.678 358.282 578.827C367.545 581.982 369.957 592.179 377.001 591.25C384.044 590.508 393.313 587.358 393.313 594.405C393.313 601.452 396.461 618.508 384.786 629.446C373.105 640.385 367.545 648.174 373.847 655.22C380.149 662.267 374.589 669.314 371.441 674.69C368.287 680.066 373.847 684.886 379.967 693.417C386.269 701.943 394.791 712.144 400.169 729.387C405.543 746.631 413.514 752.749 426.673 758.311C440.013 763.687 450.023 773.147 450.023 786.493C450.023 799.844 449.281 845.088 449.281 858.252C449.281 871.604 456.325 884.768 453.918 894.965C451.507 905.161 453.918 913.692 457.067 917.584C460.22 921.481 459.478 930.006 460.22 938.724C460.957 947.249 470.412 941.132 470.412 948.92C470.412 956.709 466.517 968.39 471.154 972.281C475.785 976.178 465.78 990.267 486.719 1003.43C507.849 1016.78 509.332 1017.52 510.816 1019.75C512.299 1022.16 519.343 1015.11 519.343 1019.01C519.343 1022.9 507.662 1034.58 529.534 1034.58C551.406 1034.58 564.565 1037.74 551.406 1027.53C538.061 1017.34 530.276 1022.16 528.051 1011.96C525.644 1001.77 522.678 1003.43 521.007 996.384C519.524 989.343 526.568 986.188 524.161 979.141C521.749 972.095 512.486 972.095 513.222 965.053C513.964 958.006 519.524 950.96 521.007 947.81C522.491 944.655 522.491 941.505 518.601 938.537C514.706 935.382 515.447 934.645 521.007 932.974C526.568 931.49 527.309 933.716 529.534 925.928C531.946 918.139 538.803 918.881 541.951 916.655C545.105 914.247 556.038 911.279 552.148 901.083C548.253 890.886 540.468 886.247 548.995 886.247C557.521 886.247 566.23 885.505 571.608 874.567C576.982 863.628 574.757 861.22 581.058 852.69C587.36 844.159 588.102 837.112 588.102 830.807C588.102 824.508 584.953 818.385 593.475 814.493C602.002 810.601 630.176 805.962 634.066 794.282C637.956 782.601 641.851 770.179 640.367 757.569C638.884 745.147 637.956 737.358 646.669 727.161C655.196 716.965 666.129 708.434 666.129 699.166C666.316 689.894 670.393 676.729 656.306 672.837Z" fill="#7ED957"/>
<path d="M800.687 159.973C809.213 150.7 806.988 145.88 818.664 141.246C830.339 136.612 827.19 130.307 825.707 121.034C824.224 111.58 825.707 115.659 830.339 112.509C834.975 109.354 842.019 107.128 852.952 106.204C863.886 105.462 853.694 101.565 853.694 96.9313C853.694 92.2975 845.909 93.0395 834.975 94.5236C824.037 96.0025 825.707 94.5236 817.735 91.3686C809.955 88.2189 763.991 88.2189 752.129 88.2189C740.449 88.2189 719.324 90.6266 708.385 91.3686C697.452 92.1107 698.194 91.3686 677.25 88.9609C656.12 86.548 600.892 88.2189 580.504 90.4398C560.302 92.8527 545.473 95.0788 532.128 103.791C518.783 112.322 510.261 109.167 495.433 110.838C480.604 112.322 479.121 112.322 472.077 112.322C465.034 112.322 465.775 108.425 453.359 113.064C440.942 117.698 444.832 120.853 440.013 114.548C435.382 108.243 429.08 114.548 407.208 119.924C385.341 125.3 414.993 131.604 422.037 134.012C422.037 134.012 436.865 133.275 445.392 130.862C453.914 128.455 457.809 134.012 463.369 132.347C468.742 130.862 470.412 125.3 501.548 118.253C532.683 111.206 554.555 116.769 567.159 122.15C579.575 127.526 579.575 124.558 590.509 117.511C601.447 110.464 620.166 105.088 639.626 101.939C659.086 98.7838 646.67 105.831 634.253 110.464C621.836 115.103 610.897 113.619 613.122 121.408C615.534 129.192 639.626 126.784 646.67 126.784C653.713 126.784 654.455 137.722 655.196 144.027C655.938 150.332 654.455 153.481 655.938 159.605C657.416 165.904 661.311 164.98 654.455 171.285C647.411 177.59 643.516 176.661 643.516 187.599C643.516 198.538 648.153 210.218 659.086 218.007C670.02 225.796 676.322 226.538 682.442 214.115C688.744 201.693 703.567 193.904 711.352 190.012C719.137 186.115 730.071 190.012 740.268 180.74C750.459 171.467 763.618 175.364 778.446 170.543C793.643 166.278 791.973 169.427 800.687 159.973Z" fill="#7ED957"/>
<path d="M816.257 177.958C792.901 181.108 771.029 173.324 774.924 185.747C778.814 198.17 779.556 216.897 792.16 213C813.658 206.327 837.382 202.803 832.008 192.794C826.262 182.592 839.607 174.808 816.257 177.958Z" fill="#7ED957"/>
<path d="M1029 334.167H1114V390.833H1029V334.167Z" fill="#D80027"/>
<path d="M1070.04 355.99L1072.96 360.015L1077.69 358.481L1074.77 362.503L1077.69 366.528L1072.96 364.988L1070.03 369.01L1070.04 364.037L1065.31 362.497L1070.04 360.963L1070.04 355.99Z" fill="#F0F0F0"/>
<path d="M1062.07 372.561C1056.51 372.561 1052.01 368.056 1052.01 362.5C1052.01 356.944 1056.51 352.439 1062.07 352.439C1063.8 352.439 1065.43 352.877 1066.86 353.648C1064.62 351.465 1061.57 350.117 1058.2 350.117C1051.36 350.117 1045.82 355.661 1045.82 362.5C1045.82 369.338 1051.36 374.882 1058.2 374.882C1061.57 374.882 1064.62 373.535 1066.86 371.351C1065.43 372.123 1063.8 372.561 1062.07 372.561Z" fill="#F0F0F0"/>
<rect x="1025" y="334" width="4" height="100" fill="black"/>
<path d="M1721 295H1638.87V352H1721V295Z" fill="#F3F3F3"/>
<path d="M1690.08 324.133C1690.08 326.667 1685.54 333 1679.93 333C1674.33 333 1669.79 326.667 1669.79 324.133C1669.79 318.537 1674.33 314 1679.93 314C1685.54 314 1690.08 318.537 1690.08 324.133Z" fill="#D80027"/>
<path d="M1690.08 324C1690.08 329.523 1685.54 334 1679.93 334C1674.33 334 1669.79 329.523 1669.79 324" fill="#0052B4"/>
<path d="M1693.14 330.411L1690.49 333.155L1692.26 334.984L1694.91 332.24L1693.14 330.411Z" fill="black"/>
<path d="M1688.72 334.982L1686.07 337.726L1687.84 339.555L1690.49 336.811L1688.72 334.982Z" fill="black"/>
<path d="M1698.45 335.896L1695.79 338.64L1697.56 340.469L1700.21 337.725L1698.45 335.896Z" fill="black"/>
<path d="M1694.03 340.47L1691.38 343.214L1693.14 345.044L1695.79 342.3L1694.03 340.47Z" fill="black"/>
<path d="M1695.79 333.153L1693.14 335.897L1694.91 337.726L1697.56 334.982L1695.79 333.153Z" fill="black"/>
<path d="M1691.38 337.726L1688.72 340.47L1690.49 342.299L1693.14 339.555L1691.38 337.726Z" fill="black"/>
<path d="M1688.73 307.543L1695.8 314.86L1697.56 313.031L1690.49 305.714L1688.73 307.543Z" fill="black"/>
<path d="M1686.07 310.287L1688.73 313.031L1690.49 311.202L1687.84 308.458L1686.07 310.287Z" fill="black"/>
<path d="M1690.49 314.861L1693.14 317.605L1694.91 315.776L1692.26 313.032L1690.49 314.861Z" fill="black"/>
<path d="M1691.37 304.8L1694.02 307.543L1695.79 305.714L1693.14 302.97L1691.37 304.8Z" fill="black"/>
<path d="M1695.79 309.373L1698.45 312.117L1700.21 310.288L1697.56 307.544L1695.79 309.373Z" fill="black"/>
<path d="M1668.4 343.214L1661.33 335.897L1659.56 337.726L1666.63 345.043L1668.4 343.214Z" fill="black"/>
<path d="M1671.05 340.471L1668.39 337.727L1666.63 339.556L1669.28 342.3L1671.05 340.471Z" fill="black"/>
<path d="M1666.63 335.897L1663.98 333.153L1662.21 334.982L1664.86 337.726L1666.63 335.897Z" fill="black"/>
<path d="M1673.7 337.727L1666.63 330.41L1664.86 332.239L1671.93 339.557L1673.7 337.727Z" fill="black"/>
<path d="M1661.33 312.115L1668.4 304.798L1666.63 302.969L1659.56 310.286L1661.33 312.115Z" fill="black"/>
<path d="M1663.98 314.86L1671.05 307.543L1669.28 305.714L1662.21 313.031L1663.98 314.86Z" fill="black"/>
<path d="M1666.63 317.604L1673.7 310.287L1671.93 308.458L1664.86 315.775L1666.63 317.604Z" fill="black"/>
<rect x="1635" y="295" width="3.86517" height="100" fill="black"/>
<path d="M1515.17 447.672C1512.45 447.672 1509.81 447.336 1507.25 446.664C1504.69 445.992 1502.61 445.096 1501.01 443.976L1504.13 436.968C1505.63 437.96 1507.38 438.76 1509.36 439.368C1511.34 439.976 1513.3 440.28 1515.22 440.28C1518.86 440.28 1520.69 439.368 1520.69 437.544C1520.69 436.584 1520.16 435.88 1519.1 435.432C1518.08 434.952 1516.42 434.456 1514.11 433.944C1511.58 433.4 1509.47 432.824 1507.78 432.216C1506.08 431.576 1504.62 430.568 1503.41 429.192C1502.19 427.816 1501.58 425.96 1501.58 423.624C1501.58 421.576 1502.14 419.736 1503.26 418.104C1504.38 416.44 1506.05 415.128 1508.26 414.168C1510.5 413.208 1513.23 412.728 1516.46 412.728C1518.67 412.728 1520.85 412.984 1522.99 413.496C1525.14 413.976 1527.02 414.696 1528.66 415.656L1525.73 422.712C1522.53 420.984 1519.42 420.12 1516.42 420.12C1514.53 420.12 1513.15 420.408 1512.29 420.984C1511.42 421.528 1510.99 422.248 1510.99 423.144C1510.99 424.04 1511.5 424.712 1512.53 425.16C1513.55 425.608 1515.2 426.072 1517.47 426.552C1520.03 427.096 1522.14 427.688 1523.81 428.328C1525.5 428.936 1526.96 429.928 1528.18 431.304C1529.42 432.648 1530.05 434.488 1530.05 436.824C1530.05 438.84 1529.49 440.664 1528.37 442.296C1527.25 443.928 1525.57 445.24 1523.33 446.232C1521.09 447.192 1518.37 447.672 1515.17 447.672ZM1547.06 447.432C1544.28 447.432 1541.77 446.856 1539.53 445.704C1537.29 444.552 1535.53 442.952 1534.25 440.904C1533 438.856 1532.37 436.536 1532.37 433.944C1532.37 431.384 1533 429.08 1534.25 427.032C1535.53 424.984 1537.27 423.4 1539.48 422.28C1541.72 421.128 1544.25 420.552 1547.06 420.552C1549.88 420.552 1552.41 421.128 1554.65 422.28C1556.89 423.4 1558.63 424.984 1559.88 427.032C1561.13 429.048 1561.75 431.352 1561.75 433.944C1561.75 436.536 1561.13 438.856 1559.88 440.904C1558.63 442.952 1556.89 444.552 1554.65 445.704C1552.41 446.856 1549.88 447.432 1547.06 447.432ZM1547.06 440.184C1548.66 440.184 1549.97 439.64 1551 438.552C1552.02 437.432 1552.53 435.896 1552.53 433.944C1552.53 432.024 1552.02 430.52 1551 429.432C1549.97 428.344 1548.66 427.8 1547.06 427.8C1545.46 427.8 1544.15 428.344 1543.13 429.432C1542.1 430.52 1541.59 432.024 1541.59 433.944C1541.59 435.896 1542.1 437.432 1543.13 438.552C1544.15 439.64 1545.46 440.184 1547.06 440.184ZM1593.33 420.984V447H1584.65V444.216C1583.69 445.272 1582.53 446.072 1581.19 446.616C1579.85 447.16 1578.42 447.432 1576.92 447.432C1573.56 447.432 1570.87 446.44 1568.85 444.456C1566.87 442.472 1565.88 439.496 1565.88 435.528V420.984H1575V434.04C1575 435.992 1575.37 437.416 1576.1 438.312C1576.84 439.208 1577.91 439.656 1579.32 439.656C1580.76 439.656 1581.93 439.16 1582.82 438.168C1583.75 437.144 1584.21 435.592 1584.21 433.512V420.984H1593.33ZM1617.16 445.944C1616.39 446.424 1615.45 446.792 1614.33 447.048C1613.24 447.304 1612.07 447.432 1610.83 447.432C1607.43 447.432 1604.83 446.6 1603 444.936C1601.18 443.272 1600.27 440.792 1600.27 437.496V428.76H1596.47V421.944H1600.27V415.176H1609.39V421.944H1615.34V428.76H1609.39V437.4C1609.39 438.328 1609.63 439.064 1610.11 439.608C1610.62 440.12 1611.29 440.376 1612.12 440.376C1613.18 440.376 1614.11 440.104 1614.91 439.56L1617.16 445.944ZM1637.62 420.552C1640.85 420.552 1643.45 421.512 1645.4 423.432C1647.38 425.352 1648.37 428.248 1648.37 432.12V447H1639.25V433.608C1639.25 430.056 1637.83 428.28 1634.98 428.28C1633.41 428.28 1632.15 428.792 1631.19 429.816C1630.26 430.84 1629.8 432.376 1629.8 434.424V447H1620.68V411.384H1629.8V423.384C1630.79 422.456 1631.96 421.752 1633.3 421.272C1634.65 420.792 1636.09 420.552 1637.62 420.552ZM1681.46 434.808L1677.91 438.6V447H1668.5V413.4H1677.91V427.368L1690.92 413.4H1701.38L1687.65 428.28L1702.1 447H1691.06L1681.46 434.808ZM1716.19 447.432C1713.4 447.432 1710.89 446.856 1708.65 445.704C1706.41 444.552 1704.65 442.952 1703.37 440.904C1702.12 438.856 1701.5 436.536 1701.5 433.944C1701.5 431.384 1702.12 429.08 1703.37 427.032C1704.65 424.984 1706.4 423.4 1708.6 422.28C1710.84 421.128 1713.37 420.552 1716.19 420.552C1719 420.552 1721.53 421.128 1723.77 422.28C1726.01 423.4 1727.76 424.984 1729 427.032C1730.25 429.048 1730.88 431.352 1730.88 433.944C1730.88 436.536 1730.25 438.856 1729 440.904C1727.76 442.952 1726.01 444.552 1723.77 445.704C1721.53 446.856 1719 447.432 1716.19 447.432ZM1716.19 440.184C1717.79 440.184 1719.1 439.64 1720.12 438.552C1721.15 437.432 1721.66 435.896 1721.66 433.944C1721.66 432.024 1721.15 430.52 1720.12 429.432C1719.1 428.344 1717.79 427.8 1716.19 427.8C1714.59 427.8 1713.28 428.344 1712.25 429.432C1711.23 430.52 1710.72 432.024 1710.72 433.944C1710.72 435.896 1711.23 437.432 1712.25 438.552C1713.28 439.64 1714.59 440.184 1716.19 440.184ZM1743.79 424.104C1744.72 422.92 1745.92 422.04 1747.39 421.464C1748.89 420.856 1750.6 420.552 1752.52 420.552V428.76C1751.69 428.664 1751 428.616 1750.46 428.616C1748.51 428.616 1746.97 429.144 1745.85 430.2C1744.76 431.256 1744.22 432.872 1744.22 435.048V447H1735.1V420.984H1743.79V424.104ZM1782.65 434.04C1782.65 434.104 1782.6 434.856 1782.5 436.296H1763.59C1763.97 437.64 1764.71 438.68 1765.8 439.416C1766.92 440.12 1768.31 440.472 1769.97 440.472C1771.22 440.472 1772.29 440.296 1773.19 439.944C1774.12 439.592 1775.05 439.016 1775.97 438.216L1780.77 443.208C1778.25 446.024 1774.55 447.432 1769.69 447.432C1766.65 447.432 1763.97 446.856 1761.67 445.704C1759.37 444.552 1757.57 442.952 1756.29 440.904C1755.05 438.856 1754.42 436.536 1754.42 433.944C1754.42 431.384 1755.03 429.096 1756.25 427.08C1757.49 425.032 1759.21 423.432 1761.38 422.28C1763.56 421.128 1766.01 420.552 1768.73 420.552C1771.32 420.552 1773.67 421.096 1775.78 422.184C1777.89 423.24 1779.56 424.792 1780.77 426.84C1782.02 428.856 1782.65 431.256 1782.65 434.04ZM1768.77 427.032C1767.37 427.032 1766.18 427.432 1765.22 428.232C1764.29 429.032 1763.7 430.12 1763.45 431.496H1774.1C1773.85 430.12 1773.24 429.032 1772.28 428.232C1771.35 427.432 1770.18 427.032 1768.77 427.032ZM1797.23 420.552C1801.55 420.552 1804.85 421.544 1807.12 423.528C1809.39 425.48 1810.53 428.488 1810.53 432.552V447H1802.03V443.64C1800.72 446.168 1798.16 447.432 1794.35 447.432C1792.34 447.432 1790.59 447.08 1789.12 446.376C1787.65 445.672 1786.53 444.728 1785.76 443.544C1785.03 442.328 1784.66 440.952 1784.66 439.416C1784.66 436.952 1785.6 435.048 1787.49 433.704C1789.38 432.328 1792.29 431.64 1796.23 431.64H1801.41C1801.25 428.888 1799.41 427.512 1795.89 427.512C1794.64 427.512 1793.38 427.72 1792.1 428.136C1790.82 428.52 1789.73 429.064 1788.83 429.768L1785.76 423.576C1787.2 422.616 1788.95 421.88 1790.99 421.368C1793.07 420.824 1795.15 420.552 1797.23 420.552ZM1796.9 441.672C1797.95 441.672 1798.88 441.416 1799.68 440.904C1800.48 440.392 1801.06 439.64 1801.41 438.648V436.392H1797.47C1794.82 436.392 1793.49 437.272 1793.49 439.032C1793.49 439.832 1793.79 440.472 1794.4 440.952C1795.01 441.432 1795.84 441.672 1796.9 441.672Z" fill="black"/>
<path d="M951.512 459.936H941.192V452.4H971.288V459.936H961.016V486H951.512V459.936ZM1001.24 459.984V486H992.553V483.216C991.593 484.272 990.441 485.072 989.097 485.616C987.753 486.16 986.329 486.432 984.825 486.432C981.465 486.432 978.777 485.44 976.761 483.456C974.777 481.472 973.785 478.496 973.785 474.528V459.984H982.905V473.04C982.905 474.992 983.273 476.416 984.009 477.312C984.745 478.208 985.817 478.656 987.225 478.656C988.665 478.656 989.833 478.16 990.729 477.168C991.657 476.144 992.121 474.592 992.121 472.512V459.984H1001.24ZM1015.8 463.104C1016.73 461.92 1017.93 461.04 1019.4 460.464C1020.91 459.856 1022.62 459.552 1024.54 459.552V467.76C1023.71 467.664 1023.02 467.616 1022.48 467.616C1020.52 467.616 1018.99 468.144 1017.87 469.2C1016.78 470.256 1016.24 471.872 1016.24 474.048V486H1007.12V459.984H1015.8V463.104ZM1040.11 476.88L1037.42 479.616V486H1028.3V450.384H1037.42V469.056L1046.74 459.984H1057.54L1046.74 471.12L1058.45 486H1047.41L1040.11 476.88ZM1086.63 473.04C1086.63 473.104 1086.58 473.856 1086.49 475.296H1067.57C1067.96 476.64 1068.69 477.68 1069.78 478.416C1070.9 479.12 1072.29 479.472 1073.96 479.472C1075.21 479.472 1076.28 479.296 1077.17 478.944C1078.1 478.592 1079.03 478.016 1079.96 477.216L1084.76 482.208C1082.23 485.024 1078.53 486.432 1073.67 486.432C1070.63 486.432 1067.96 485.856 1065.65 484.704C1063.35 483.552 1061.56 481.952 1060.28 479.904C1059.03 477.856 1058.41 475.536 1058.41 472.944C1058.41 470.384 1059.01 468.096 1060.23 466.08C1061.48 464.032 1063.19 462.432 1065.37 461.28C1067.54 460.128 1069.99 459.552 1072.71 459.552C1075.3 459.552 1077.65 460.096 1079.77 461.184C1081.88 462.24 1083.54 463.792 1084.76 465.84C1086.01 467.856 1086.63 470.256 1086.63 473.04ZM1072.76 466.032C1071.35 466.032 1070.17 466.432 1069.21 467.232C1068.28 468.032 1067.69 469.12 1067.43 470.496H1078.09C1077.83 469.12 1077.22 468.032 1076.26 467.232C1075.33 466.432 1074.17 466.032 1072.76 466.032ZM1117.77 459.984L1106.54 487.056C1105.23 490.256 1103.63 492.496 1101.74 493.776C1099.85 495.088 1097.55 495.744 1094.83 495.744C1093.45 495.744 1092.06 495.52 1090.65 495.072C1089.28 494.656 1088.16 494.096 1087.29 493.392L1090.46 487.008C1090.97 487.488 1091.58 487.856 1092.29 488.112C1093.02 488.4 1093.76 488.544 1094.49 488.544C1095.36 488.544 1096.06 488.368 1096.61 488.016C1097.18 487.664 1097.66 487.104 1098.05 486.336L1086.91 459.984H1096.27L1102.65 475.872L1109.09 459.984H1117.77Z" fill="black"/>
</svg>
